<?xml version="1.0" encoding="UTF-8" standalone="no"?>
<!DOCTYPE svg PUBLIC "-//W3C//DTD SVG 1.1//EN" "http://www.w3.org/Graphics/SVG/1.1/DTD/svg11.dtd">
<svg width="100%" height="100%" viewBox="0 0 2631 315" version="1.1" xmlns="http://www.w3.org/2000/svg" xmlns:xlink="http://www.w3.org/1999/xlink" xml:space="preserve" xmlns:serif="http://www.serif.com/" style="fill-rule:evenodd;clip-rule:evenodd;stroke-linejoin:round;stroke-miterlimit:2;">
    <g id="Artboard6" transform="matrix(1.26795,0,0,0.388889,-1025.77,-1306.67)">
        <g>
            <rect x="809" y="3360" width="2075" height="810" style="fill:none;"/>
            <g>
                <clipPath id="_clip1">
                    <rect x="809" y="3360" width="2075" height="810"/>
                </clipPath>
                <g clip-path="url(#_clip1)">
                    <g transform="matrix(0.788674,0,0,2.57143,297.827,-5664.16)">
                        <g>
                            <rect x="1049.14" y="3554.01" width="33.431" height="265.99" style="stroke:black;stroke-width:3.75px;"/>
                            <path d="M1158.76,3559.67L1154.92,3626.9L1131.35,3626.9L1131.53,3539.39L1158.76,3539.39L1158.76,3559.67Z" style="fill-rule:nonzero;stroke:black;stroke-width:3.75px;"/>
                            <path d="M1228.72,3622.33L1229.45,3640.6C1241.51,3625.99 1257.4,3618.68 1277.13,3618.68C1299.18,3618.68 1314.59,3628.24 1323.35,3647.36C1335.78,3628.24 1353.07,3618.68 1375.24,3618.68C1411.65,3618.68 1430.29,3641.39 1431.14,3686.82L1431.14,3820L1398.99,3820L1398.99,3689.93C1398.99,3675.56 1396.43,3664.87 1391.31,3657.87C1386.2,3650.86 1377.55,3647.36 1365.37,3647.36C1355.63,3647.36 1347.71,3651.14 1341.62,3658.69C1335.53,3666.24 1332,3675.86 1331.03,3687.55L1331.03,3820L1298.51,3820L1298.51,3688.47C1298.14,3661.06 1287,3647.36 1265.08,3647.36C1248.76,3647.36 1237.25,3655.52 1230.55,3671.84L1230.55,3820L1198.4,3820L1198.4,3622.33L1228.72,3622.33Z" style="fill-rule:nonzero;stroke:black;stroke-width:3.75px;"/>
                        </g>
                        <g>
                            <path d="M1743.71,3820L1710.1,3820L1603.59,3615.03L1603.59,3820L1569.98,3820L1569.98,3554.01L1603.59,3554.01L1710.47,3759.9L1710.47,3554.01L1743.71,3554.01L1743.71,3820Z" style="fill-rule:nonzero;stroke:black;stroke-width:3.75px;"/>
                            <path d="M1790.3,3712.03C1790.3,3683.29 1797.27,3660.55 1811.22,3643.8C1825.16,3627.05 1843.58,3618.68 1866.48,3618.68C1889.38,3618.68 1907.8,3626.84 1921.74,3643.16C1935.69,3659.48 1942.84,3681.71 1943.21,3709.84L1943.21,3730.67C1943.21,3759.29 1936.27,3781.94 1922.38,3798.63C1908.5,3815.31 1889.99,3823.65 1866.85,3823.65C1843.95,3823.65 1825.59,3815.56 1811.77,3799.36C1797.94,3783.16 1790.79,3761.24 1790.3,3733.59L1790.3,3712.03ZM1822.63,3730.67C1822.63,3751.01 1826.62,3766.99 1834.6,3778.62C1842.58,3790.25 1853.33,3796.07 1866.85,3796.07C1895.34,3796.07 1910.02,3775.49 1910.87,3734.32L1910.87,3712.03C1910.87,3691.82 1906.85,3675.83 1898.82,3664.08C1890.78,3652.33 1880,3646.45 1866.48,3646.45C1853.2,3646.45 1842.58,3652.33 1834.6,3664.08C1826.62,3675.83 1822.63,3691.76 1822.63,3711.85L1822.63,3730.67Z" style="fill-rule:nonzero;stroke:black;stroke-width:3.75px;"/>
                            <path d="M2027.24,3574.47L2027.24,3622.33L2057.02,3622.33L2057.02,3648.46L2027.24,3648.46L2027.24,3771.04C2027.24,3778.84 2028.52,3784.74 2031.08,3788.76C2033.64,3792.78 2038.02,3794.79 2044.23,3794.79C2048.49,3794.79 2052.82,3794.06 2057.2,3792.6L2056.84,3820C2049.53,3822.44 2042.04,3823.65 2034.37,3823.65C2021.58,3823.65 2011.84,3819.09 2005.14,3809.95C1998.44,3800.82 1995.09,3787.91 1995.09,3771.22L1995.09,3648.46L1964.95,3648.46L1964.95,3622.33L1995.09,3622.33L1995.09,3574.47L2027.24,3574.47Z" style="fill-rule:nonzero;stroke:black;stroke-width:3.75px;"/>
                            <path d="M2282.82,3820C2280.87,3815.74 2279.47,3808.55 2278.62,3798.44C2267.17,3815.25 2252.55,3823.65 2234.77,3823.65C2216.87,3823.65 2202.89,3818.63 2192.85,3808.58C2182.8,3798.53 2177.78,3784.38 2177.78,3766.11C2177.78,3746.01 2184.6,3730.06 2198.24,3718.24C2211.88,3706.43 2230.57,3700.4 2254.32,3700.16L2278.07,3700.16L2278.07,3679.15C2278.07,3667.34 2275.45,3658.93 2270.22,3653.94C2264.98,3648.95 2257,3646.45 2246.28,3646.45C2236.54,3646.45 2228.62,3649.34 2222.53,3655.13C2216.44,3660.91 2213.4,3668.25 2213.4,3677.14L2181.06,3677.14C2181.06,3667.03 2184.05,3657.38 2190.02,3648.18C2195.98,3638.99 2204.02,3631.77 2214.13,3626.54C2224.24,3621.3 2235.5,3618.68 2247.93,3618.68C2268.14,3618.68 2283.52,3623.7 2294.05,3633.75C2304.59,3643.8 2309.98,3658.45 2310.22,3677.69L2310.22,3777.43C2310.35,3792.66 2312.41,3805.87 2316.43,3817.08L2316.43,3820L2282.82,3820ZM2239.71,3794.24C2247.62,3794.24 2255.17,3792.05 2262.36,3787.66C2269.55,3783.28 2274.78,3777.8 2278.07,3771.22L2278.07,3724.09L2259.8,3724.09C2244.46,3724.33 2232.34,3727.77 2223.45,3734.41C2214.56,3741.05 2210.11,3750.34 2210.11,3762.27C2210.11,3773.48 2212.36,3781.61 2216.87,3786.66C2221.38,3791.71 2228.99,3794.24 2239.71,3794.24Z" style="fill-rule:nonzero;stroke:black;stroke-width:3.75px;"/>
                        </g>
                        <g>
                            <path d="M2530.91,3712.4L2484.14,3712.4L2484.14,3820L2450.53,3820L2450.53,3554.01L2525.06,3554.01C2551.12,3554.01 2570.86,3560.8 2584.25,3574.38C2597.65,3587.96 2604.35,3607.84 2604.35,3634.03C2604.35,3650.47 2600.72,3664.81 2593.48,3677.05C2586.23,3689.29 2575.97,3698.51 2562.7,3704.72L2614.21,3817.81L2614.21,3820L2578.22,3820L2530.91,3712.4ZM2484.14,3683.72L2524.7,3683.72C2538.7,3683.72 2549.88,3679.21 2558.22,3670.2C2566.56,3661.18 2570.73,3649.13 2570.73,3634.03C2570.73,3599.93 2555.26,3582.87 2524.33,3582.87L2484.14,3582.87L2484.14,3683.72Z" style="fill-rule:nonzero;stroke:black;stroke-width:3.75px;"/>
                            <path d="M2975.56,3730.67C2975.56,3761.48 2970.02,3784.68 2958.94,3800.27C2947.86,3815.86 2931.78,3823.65 2910.71,3823.65C2889.76,3823.65 2874.05,3814.64 2863.58,3796.62L2861.93,3820L2832.52,3820L2832.52,3539.39L2864.67,3539.39L2864.67,3644.07C2875.27,3627.14 2890.49,3618.68 2910.35,3618.68C2932.02,3618.68 2948.28,3626.35 2959.12,3641.7C2969.96,3657.04 2975.44,3680.18 2975.56,3711.12L2975.56,3730.67ZM2943.41,3712.22C2943.41,3688.83 2940.15,3672.18 2933.64,3662.25C2927.12,3652.33 2916.56,3647.36 2901.94,3647.36C2885.26,3647.36 2872.83,3656.37 2864.67,3674.4L2864.67,3768.48C2872.71,3786.26 2885.26,3795.16 2902.31,3795.16C2916.92,3795.16 2927.4,3790.04 2933.73,3779.81C2940.06,3769.58 2943.29,3753.68 2943.41,3732.13L2943.41,3712.22Z" style="fill-rule:nonzero;stroke:black;stroke-width:3.75px;"/>
                            <path d="M3010.09,3712.03C3010.09,3683.29 3017.07,3660.55 3031.01,3643.8C3044.95,3627.05 3063.38,3618.68 3086.27,3618.68C3109.17,3618.68 3127.59,3626.84 3141.53,3643.16C3155.48,3659.48 3162.64,3681.71 3163,3709.84L3163,3730.67C3163,3759.29 3156.06,3781.94 3142.17,3798.63C3128.29,3815.31 3109.78,3823.65 3086.64,3823.65C3063.74,3823.65 3045.38,3815.56 3031.56,3799.36C3017.73,3783.16 3010.58,3761.24 3010.09,3733.59L3010.09,3712.03ZM3042.43,3730.67C3042.43,3751.01 3046.42,3766.99 3054.39,3778.62C3062.37,3790.25 3073.12,3796.07 3086.64,3796.07C3115.14,3796.07 3129.81,3775.49 3130.66,3734.32L3130.66,3712.03C3130.66,3691.82 3126.65,3675.83 3118.61,3664.08C3110.57,3652.33 3099.79,3646.45 3086.27,3646.45C3073,3646.45 3062.37,3652.33 3054.39,3664.08C3046.42,3675.83 3042.43,3691.76 3042.43,3711.85L3042.43,3730.67Z" style="fill-rule:nonzero;stroke:black;stroke-width:3.75px;"/>
                            <g transform="matrix(1,0,0,1,-367.153,0)">
                                <path d="M3010.09,3712.03C3010.09,3683.29 3017.07,3660.55 3031.01,3643.8C3044.95,3627.05 3063.38,3618.68 3086.27,3618.68C3109.17,3618.68 3127.59,3626.84 3141.53,3643.16C3155.48,3659.48 3162.64,3681.71 3163,3709.84L3163,3730.67C3163,3759.29 3156.06,3781.94 3142.17,3798.63C3128.29,3815.31 3109.78,3823.65 3086.64,3823.65C3063.74,3823.65 3045.38,3815.56 3031.56,3799.36C3017.73,3783.16 3010.58,3761.24 3010.09,3733.59L3010.09,3712.03ZM3042.43,3730.67C3042.43,3751.01 3046.42,3766.99 3054.39,3778.62C3062.37,3790.25 3073.12,3796.07 3086.64,3796.07C3115.14,3796.07 3129.81,3775.49 3130.66,3734.32L3130.66,3712.03C3130.66,3691.82 3126.65,3675.83 3118.61,3664.08C3110.57,3652.33 3099.79,3646.45 3086.27,3646.45C3073,3646.45 3062.37,3652.33 3054.39,3664.08C3046.42,3675.83 3042.43,3691.76 3042.43,3711.85L3042.43,3730.67Z" style="fill-rule:nonzero;stroke:black;stroke-width:3.75px;"/>
                            </g>
                            <path d="M3247.03,3574.47L3247.03,3622.33L3276.81,3622.33L3276.81,3648.46L3247.03,3648.46L3247.03,3771.04C3247.03,3778.84 3248.31,3784.74 3250.87,3788.76C3253.43,3792.78 3257.81,3794.79 3264.03,3794.79C3268.29,3794.79 3272.61,3794.06 3277,3792.6L3276.63,3820C3269.32,3822.44 3261.83,3823.65 3254.16,3823.65C3241.37,3823.65 3231.63,3819.09 3224.93,3809.95C3218.23,3800.82 3214.88,3787.91 3214.88,3771.22L3214.88,3648.46L3184.74,3648.46L3184.74,3622.33L3214.88,3622.33L3214.88,3574.47L3247.03,3574.47Z" style="fill-rule:nonzero;stroke:black;stroke-width:3.75px;"/>
                        </g>
                    </g>
                    <g transform="matrix(12.4216,0,0,40.5,784.157,3277.09)">
                        <path d="M12,2C10.903,2 10,2.903 10,4C10.001,4.713 10.382,5.374 11,5.73L11,8L8,8C5.803,8 4,9.803 4,12L4,16L2,16L2,18L4,18L4,20C4,21.093 4.907,22 6,22L18,22C19.093,22 20,21.093 20,20L20,18L22,18L22,16L20,16L20,12C20,9.803 18.197,8 16,8L13,8L13,5.729C13.617,5.372 13.999,4.712 14,4C14,2.903 13.097,2 12,2ZM8,10L16,10C17.117,10 18,10.883 18,12L18,20L15,20L15,18L9,18L9,20L6,20L6,12C6,10.883 6.883,10 8,10ZM9.5,13C8.677,13 8,13.677 8,14.5C8,15.323 8.677,16 9.5,16C10.323,16 11,15.323 11,14.5C11,13.677 10.323,13 9.5,13ZM14.5,13C13.677,13 13,13.677 13,14.5C13,15.323 13.677,16 14.5,16C15.323,16 16,15.323 16,14.5C16,13.677 15.323,13 14.5,13Z" style="fill:rgb(72,141,221);fill-rule:nonzero;"/>
                    </g>
                </g>
            </g>
        </g>
    </g>
</svg>
